# xmcd CD database file
#
# Track frame offsets:
#	150
#	12159
#	29407
#	46085
#	57058
#	69875
#	88591
#	100073
#	107568
#	122175
#	139927
#	156778
#	182837
#
# Disc length: 3183 seconds
#
# Revision: 0
# Processed by: cddbd v1.5.2PL0 Copyright (c) Steve Scherf et al.
# Submitted via: CDex 1.51
#
DISCID=a10c6d0d
DTITLE=Enya - a day without rain
DYEAR=1900
DGENRE=New Age
TTITLE0=a day without rain
TTITLE1=wild child
TTITLE2=only time (original)
TTITLE3=tempus
TTITLE4=deora ar mo chroi
TTITLE5=flora´s secret
TTITLE6=fallen embers
TTITLE7=silver inches
TTITLE8=pilgrim
TTITLE9=one by one
TTITLE10=lazy days
TTITLE11=only time (in memory of WTC)
TTITLE12=a day without rain (megamix)
EXTD=
EXTT0=
EXTT1=
EXTT2=
EXTT3=
EXTT4=
EXTT5=
EXTT6=
EXTT7=
EXTT8=
EXTT9=
EXTT10=
EXTT11=
EXTT12=
PLAYORDER=
